PathFileType	4	(X/Y/Z)	OpenSim_Sub06_CSStiffKnee_Magnet.trc
DataRate	CameraRate	NumFrames	NumMarkers	Units	OrigDataRate	OrigDataStartFrame	OrigNumFrames
100	100	30	8	m	100	6269	7164
Frame#	Time	torso_imu_offset_imu	pelvis_imu_offset_imu	tibia_r_imu_offset_imu	femur_r_imu_offset_imu	tibia_l_imu_offset_imu	femur_l_imu_offset_imu	toes_r_imu_offset_imu	toes_l_imu_offset_imu
				X1	Y1	Z1	X2	Y2	Z2	X3	Y3	Z3	X4	Y4	Z4	X5	Y5	Z5	X6	Y6	Z6	X7	Y7	Z7	X8		Y8	Z8	

6269	62.68000000	-0.92124899	-0.24712871	0.09829564	-0.48590249	0.26366905	-0.76135691	-0.65332031	-0.38313278	-0.33873617	-0.81671421	-0.18569216	-0.03704206	-0.52458676	0.66009371	0.10934950	-0.33824322	0.43660590	0.49858224	-0.62866456	-0.20371607	-0.46910941	-0.77653314	-0.09577561	-0.34532524
6270	62.69000000	-0.92460222	-0.24689838	0.09294297	-0.48166235	0.25862910	-0.76544274	-0.65258324	-0.39582212	-0.33556673	-0.81788780	-0.18487084	-0.02830487	-0.51390105	0.67153135	0.10985898	-0.34160926	0.43450791	0.48763829	-0.60697470	-0.21561507	-0.49140903	-0.77990166	-0.08954250	-0.33269032
6271	62.70000000	-0.92591022	-0.24445362	0.09328548	-0.48526602	0.25431941	-0.75934307	-0.64515776	-0.40428593	-0.33417787	-0.81915813	-0.18408598	-0.01226007	-0.49479811	0.68354364	0.10098007	-0.34395917	0.43944877	0.48153723	-0.60756734	-0.21358549	-0.48829789	-0.78594112	-0.08523034	-0.31513039
6272	62.71000000	-0.92035274	-0.24198183	0.09623225	-0.49129149	0.25728913	-0.75967661	-0.63814962	-0.41720518	-0.33825855	-0.81597459	-0.18996533	-0.00278724	-0.48093197	0.69414911	0.09909679	-0.34599661	0.44025718	0.47970714	-0.60455293	-0.22655789	-0.48866875	-0.79524844	-0.07734090	-0.29565110
6273	62.72000000	-0.92501380	-0.23699915	0.09372674	-0.48931355	0.25526317	-0.75903175	-0.62832146	-0.44320865	-0.32897501	-0.81117852	-0.19395657	-0.00009246	-0.46552474	0.70775149	0.09704980	-0.34881576	0.43651966	0.47957032	-0.60450139	-0.22744595	-0.49185610	-0.80134590	-0.06654807	-0.27638863
6274	62.73000000	-0.92659322	-0.23539356	0.09366238	-0.49083528	0.25684477	-0.75443227	-0.61564788	-0.46683693	-0.32129243	-0.81338099	-0.19095810	0.00009532	-0.45151567	0.71428256	0.08989198	-0.35281834	0.42968555	0.46923153	-0.61008121	-0.22969107	-0.49278285	-0.80628650	-0.05880309	-0.24978425
6275	62.74000000	-0.92280779	-0.23934791	0.09576572	-0.48547398	0.26675440	-0.75995234	-0.60027554	-0.49343935	-0.30095661	-0.81862981	-0.18529600	-0.00246028	-0.42708711	0.72648616	0.09496431	-0.35840052	0.42265887	0.47056055	-0.60671478	-0.23421509	-0.49541884	-0.81468777	-0.04745094	-0.22041159
6276	62.75000000	-0.92702629	-0.23835825	0.10118741	-0.48319804	0.26648435	-0.75813190	-0.59166680	-0.51574134	-0.26894193	-0.81220286	-0.18253746	-0.00806659	-0.40755094	0.74076955	0.09456167	-0.37103031	0.41333986	0.47606010	-0.61050391	-0.23057527	-0.49375881	-0.82249338	-0.03083129	-0.18629361
6277	62.76000000	-0.92933855	-0.23558577	0.10079233	-0.48535021	0.26439301	-0.75661223	-0.58597073	-0.53468550	-0.25032796	-0.80870127	-0.19289656	-0.00715439	-0.38530769	0.75517665	0.09509175	-0.38585068	0.40095187	0.46503746	-0.60787587	-0.23178784	-0.49683148	-0.82565702	-0.02162135	-0.14534800
6278	62.77000000	-0.92816471	-0.23151444	0.10335113	-0.48533570	0.26174914	-0.76064188	-0.58255595	-0.54511881	-0.23458778	-0.80473873	-0.19883530	-0.00042235	-0.36216694	0.76558118	0.09699858	-0.39773898	0.39017940	0.46150468	-0.61341618	-0.23563420	-0.49734118	-0.83775377	-0.00819630	-0.09910115
6279	62.78000000	-0.92966847	-0.23026308	0.10507546	-0.48761800	0.25320095	-0.76738432	-0.58486907	-0.55805993	-0.21682166	-0.80851646	-0.20182873	0.00950673	-0.33980066	0.77692880	0.08520423	-0.41390244	0.38051203	0.45607046	-0.61780894	-0.23192606	-0.49587212	-0.84428390	0.00654719	-0.04644681
6280	62.79000000	-0.92734853	-0.23085779	0.10883838	-0.48857083	0.24485025	-0.77057863	-0.57615627	-0.56779744	-0.21617672	-0.80457916	-0.21652400	0.00458195	-0.32193257	0.78267691	0.07591480	-0.43273629	0.36908842	0.43832068	-0.61240937	-0.23961128	-0.49917824	-0.83744510	0.01666689	0.00192582
6281	62.80000000	-0.92816786	-0.22412604	0.11441382	-0.48475592	0.23843657	-0.77316486	-0.57313138	-0.56270666	-0.21678720	-0.79946052	-0.23544026	0.01074856	-0.30249042	0.78432854	0.07693587	-0.44039434	0.36672295	0.42585370	-0.61352876	-0.24643122	-0.50182815	-0.83663908	0.03412439	0.05545664
6282	62.81000000	-0.93217307	-0.21632674	0.11607782	-0.48139497	0.22751058	-0.77728048	-0.57395604	-0.56371412	-0.22151680	-0.79266294	-0.24377736	0.01514635	-0.28779683	0.79355108	0.07374452	-0.45157360	0.34943229	0.41871661	-0.60965389	-0.24463792	-0.50253545	-0.83044354	0.04586428	0.10414268
6283	62.82000000	-0.93283887	-0.22169769	0.11719405	-0.48131689	0.22229866	-0.77859336	-0.56976923	-0.56760278	-0.23549418	-0.78614284	-0.25674955	0.00955094	-0.27210521	0.79531023	0.08137704	-0.45671420	0.33473702	0.40784320	-0.60986215	-0.24950354	-0.50711817	-0.82338785	0.06071607	0.14441047
6284	62.83000000	-0.92828578	-0.21752496	0.11531577	-0.47767134	0.21298039	-0.78191333	-0.56640042	-0.57110308	-0.23910509	-0.78372662	-0.26644017	0.00718858	-0.26165781	0.79786216	0.08341416	-0.45711253	0.31905891	0.39864593	-0.60682474	-0.25410037	-0.50679566	-0.81859851	0.07684471	0.17207543
6285	62.84000000	-0.93434280	-0.22091523	0.12338091	-0.47357697	0.20792023	-0.78936440	-0.56118341	-0.56774122	-0.25035909	-0.78098654	-0.26962273	0.00693236	-0.25684058	0.80582200	0.08353897	-0.46440522	0.30040380	0.38790263	-0.60594664	-0.25891261	-0.50747660	-0.81017056	0.08734753	0.19094294
6286	62.85000000	-0.93583352	-0.21765548	0.13060758	-0.47201053	0.19764039	-0.79494633	-0.55821551	-0.56919730	-0.25424744	-0.77446444	-0.28285625	0.00540974	-0.24313573	0.80720351	0.08477128	-0.46858034	0.28687480	0.39358203	-0.60768224	-0.26282790	-0.51530644	-0.80852131	0.09243918	0.18472459
6287	62.86000000	-0.93171984	-0.21014832	0.12912341	-0.47171646	0.19702627	-0.79538478	-0.55255986	-0.56831194	-0.25273619	-0.77613226	-0.28755791	0.00571807	-0.23920514	0.80910489	0.08602162	-0.47223780	0.27799341	0.39891987	-0.60810325	-0.26905883	-0.51183435	-0.81528896	0.09210756	0.17083592
6288	62.87000000	-0.93019634	-0.20847726	0.13690007	-0.47332034	0.19969402	-0.79355945	-0.54636724	-0.57718422	-0.25529738	-0.77058629	-0.29671085	0.00650861	-0.24849740	0.80859205	0.08433054	-0.48022280	0.26075318	0.38239951	-0.60859369	-0.26961526	-0.51229484	-0.81868460	0.10218155	0.16129917
6289	62.88000000	-0.93226735	-0.20311530	0.14321288	-0.47181514	0.19014681	-0.79816381	-0.54088920	-0.58556577	-0.24337771	-0.76697258	-0.29726942	0.00999415	-0.24682346	0.80472807	0.07006329	-0.48744962	0.25134572	0.38460273	-0.60862462	-0.27259152	-0.51634442	-0.81643395	0.11181139	0.14476925
6290	62.89000000	-0.93391258	-0.19740890	0.14823447	-0.46436140	0.18276998	-0.80236840	-0.54497018	-0.59139040	-0.23539324	-0.76530742	-0.30112858	0.01382954	-0.25908173	0.79909384	0.05932270	-0.49795326	0.23827740	0.37678057	-0.61410032	-0.27504276	-0.51053128	-0.82470274	0.12612246	0.11976766
6291	62.90000000	-0.93283962	-0.19285365	0.15074181	-0.46430624	0.18230926	-0.80528541	-0.54058837	-0.59999626	-0.22242286	-0.76577840	-0.31120046	0.01756342	-0.27515338	0.79720041	0.04658946	-0.50557484	0.22464939	0.37201252	-0.60918617	-0.28046331	-0.52007921	-0.82830127	0.13720095	0.10261553
6292	62.91000000	-0.93675831	-0.18652894	0.15822278	-0.46439823	0.17500552	-0.81041196	-0.53762565	-0.60315874	-0.22195275	-0.76326095	-0.31868111	0.02439303	-0.29000716	0.79187258	0.03597207	-0.51089325	0.21618022	0.37107394	-0.60931266	-0.28105674	-0.51780024	-0.83150533	0.13995089	0.07378773
6293	62.92000000	-0.93095704	-0.18319022	0.16270378	-0.46417547	0.16969391	-0.80908593	-0.53678046	-0.61067686	-0.22424015	-0.75864453	-0.32276242	0.02522677	-0.30793863	0.78483678	0.02120630	-0.51140334	0.20889219	0.36170648	-0.61498247	-0.29058174	-0.51487766	-0.83997087	0.14809104	0.03882718
6294	62.93000000	-0.93469034	-0.17612115	0.16241213	-0.45566478	0.16483141	-0.81903725	-0.52720838	-0.61172843	-0.21948043	-0.75631870	-0.33603711	0.02737272	-0.32800697	0.77480122	0.00533794	-0.51330228	0.20290789	0.35617532	-0.61010053	-0.29171826	-0.52456885	-0.84306345	0.15877200	0.00131020
6295	62.94000000	-0.93677316	-0.16495917	0.16888367	-0.45719378	0.15940682	-0.81912845	-0.52202101	-0.61440914	-0.22176128	-0.74877754	-0.34493074	0.03066865	-0.34671933	0.76546860	-0.00836483	-0.51866822	0.19293927	0.34346123	-0.61115597	-0.29691723	-0.52393139	-0.83616691	0.15756403	-0.03032522
6296	62.95000000	-0.93491075	-0.16626906	0.17489691	-0.45369113	0.15792683	-0.82144293	-0.52602862	-0.61511334	-0.22898137	-0.74524220	-0.35035798	0.02872385	-0.37993828	0.75673260	-0.02504056	-0.52122678	0.18518469	0.34893218	-0.60973994	-0.30331897	-0.52031954	-0.83431748	0.15764177	-0.07418674
6297	62.96000000	-0.93684630	-0.16471755	0.17670416	-0.45530042	0.15547685	-0.81836148	-0.51655081	-0.61325938	-0.23547779	-0.73827342	-0.35800309	0.02836404	-0.40448825	0.74135255	-0.03614625	-0.53283538	0.17607096	0.34796136	-0.60893913	-0.31265659	-0.52281867	-0.83395719	0.15534733	-0.10885182
6298	62.97000000	-0.94132301	-0.15375769	0.18464832	-0.45317786	0.14940724	-0.82235751	-0.50973970	-0.61802811	-0.23791183	-0.73809683	-0.36779698	0.02315215	-0.42707080	0.72203417	-0.04583005	-0.54166997	0.16907662	0.34152141	-0.60914965	-0.32099767	-0.51988626	-0.83305369	0.15286111	-0.14266820
